<svg enable-background="new 0 0 100 100" height="100" viewBox="0 0 100 100" width="100" xmlns="http://www.w3.org/2000/svg"><g fill="#fff"><path d="m42.4 50h29.5c.899 0 1.699-.6 1.899-1.5l5.4-19c.401-1.3-.599-2.5-1.899-2.5h-45.6l-.8-2.8c-.4-1.3-1.6-2.2-2.9-2.2h-4.8c-1.6 0-3.1 1.2-3.2 2.8-.1 1.7 1.3 3.2 3 3.2h2.8l9.4 31.8c.4 1.3 1.5 2.2 2.9 2.2h34.8c1.6 0 3.1-1.2 3.199-2.8.101-1.7-1.3-3.2-3-3.2h-30.599c-1.3 0-2.5-.9-2.8-2.1v-.1c-.7-1.9.8-3.8 2.7-3.8z"/><circle cx="43" cy="73" r="5"/><circle cx="67" cy="73" r="5"/></g></svg>